<?xml version="1.0" encoding="UTF-8" standalone="no"?>

<svg
   xmlns:rdf="http://www.w3.org/1999/02/22-rdf-syntax-ns#"
   xmlns:svg="http://www.w3.org/2000/svg"
   xmlns="http://www.w3.org/2000/svg"
   xmlns:xlink="http://www.w3.org/1999/xlink"
   version="1.1"
   width="1227"
   height="628">
  <defs>
    <style type="text/css"><![CDATA[
  
      .continent {
        stroke: #000000;
        stroke-width: 1px;
      }

      #south-america            { fill: #009999; }
      #south-america .highlight { fill: #006363; }
      #south-america .selected  { fill: #5ccccc; }
      
      #australia            { fill: #9fee00; }
      #australia .highlight { fill: #679b00; }
      #australia .selected  { fill: #c9f76f; }

      #africa            { fill: #ffaa00; }
      #africa .highlight { fill: #a66f00; }      
      #africa .selected  { fill: #ffd073; }

      #north-america            { fill: #7109aa; }
      #north-america .highlight { fill: #48036f; }
      #north-america .selected  { fill: #ad66d5; }

      #asia              { fill: #ff0000; }
      #asia .highlight { fill: #a60000; }
      #asia .selected    { fill: #ff7373; }

      #europe              { fill: #1240ab; }
      #europe .highlight   { fill: #06266f; }
      #europe .selected    { fill: #6c8cd5; }

    ]]></style>
  </defs>
  <g id="south-america"
     class="continent">
     
    <path id="brazil"
	  class="territory"
	  d="m 340.6875,344.875 -4.75,7.40625 -19.78125,1.375 -8.25,3.6875 -4.59375,-6.4375 2.75,-6.4375 -2.75,-5.0625 -11.03125,6.4375 -4.59375,-2.75 -1.84375,2.75 2.28125,9.65625 -8.71875,4.125 -2.75,-5.5 -3.21875,-1.40625 -0.9375,2.78125 -3.65625,-2.3125 -4.59375,3.21875 2.75,3.21875 -4.125,4.125 4.125,7.8125 -3.21875,12.875 -4.125,-2.75 -4.59375,1.375 -4.625,4.59375 0,12.875 6.90625,7.34375 2.3125,-1.84375 3.21875,1.84375 0,3.6875 5.96875,2.75 5.96875,-5.96875 7.34375,-1.375 5.0625,11.03125 17.46875,7.34375 2.28125,9.1875 7.8125,0.90625 5.96875,8.75 -1.8125,5.0625 -4.15625,1.8125 4.15625,3.6875 2.28125,10.125 16.09375,10.09375 2.28125,9.65625 -9.65625,7.8125 -1.375,5.0625 21.21875,15.9375 12.875,-25.15625 -4.5625,-10.40625 20.78125,-12.34375 5.21875,2.59375 9.75,-17.53125 0,-26.65625 7.15625,-7.15625 10.375,-16.90625 -2.59375,-12.34375 -11.6875,-1.9375 -7.8125,-7.8125 -17.53125,-3.25 -3.90625,5.84375 0,-7.78125 -9.09375,-7.15625 -7.15625,8.46875 -4.5625,-0.65625 5.875,-7.15625 -3.90625,-4.5625 -9.75,10.40625 -3.25,-3.25 8.4375,-9.75 -3.25,-13.65625 -0.5,-0.40625 z"/>
  
    <path id="peru"
	  class="territory"
	  d="m 261.5,382.90625 1.8125,-8.125 -11.03125,-0.4375 -9.65625,-12.40625 -5.5,0.90625 -9.53125,-5.1875 -9.21875,13.625 5.1875,3.25 -7.15625,9.09375 2.59375,7.8125 6.5,3.25 5.21875,14.3125 8.4375,12.34375 5.21875,9.09375 15.59375,8.4375 6.65625,8.875 4.96875,-4.03125 9.65625,23.4375 4.59375,-3.21875 13.3125,0.46875 1.84375,-2.75 9.1875,10.09375 12.875,4.59375 -1.84375,10.125 11.03125,1.375 5.375,-11.59375 -0.3125,-1.28125 -16.09375,-10.09375 -2.28125,-10.125 -4.15625,-3.6875 4.15625,-1.8125 1.8125,-5.0625 -5.96875,-8.75 -7.8125,-0.90625 -2.28125,-9.1875 L 287.21875,418 l -5.0625,-11.03125 -7.34375,1.375 -5.96875,5.96875 -5.96875,-2.75 0,-3.6875 -3.21875,-1.84375 -2.3125,1.84375 -6.90625,-7.34375 0,-12.875 4.625,-4.59375 4.59375,-1.375 1.84375,1.21875 z"/>

    <path id="venezuela"
	  class="territory"
	  d="m 260.59375,306.9375 -5.84375,1.96875 -9.75,5.1875 -5.84375,11.0625 -9.75,3.25 4.5625,7.78125 -0.65625,13 -5.71875,8.46875 9.53125,5.1875 5.5,-0.90625 9.65625,12.40625 11.03125,0.4375 -1.8125,8.125 2.28125,1.53125 3.21875,-12.875 -4.125,-7.8125 4.125,-4.125 -2.75,-3.21875 4.59375,-3.21875 3.65625,2.3125 0.9375,-2.78125 3.21875,1.40625 2.75,5.5 8.71875,-4.125 -2.28125,-9.65625 1.84375,-2.75 4.59375,2.75 11.03125,-6.4375 2.75,5.0625 -2.75,6.4375 4.59375,6.4375 8.25,-3.6875 19.78125,-1.375 4.75,-7.40625 -9.25,-7.375 -13.625,0 -11.0625,-11.6875 -15.59375,-9.75 -11.6875,1.28125 -11.71875,-7.78125 -7.15625,5.84375 3.25,3.90625 -5.84375,4.53125 -2.59375,-7.15625 5.1875,-9.75 z"/>
	
    <g id="argentina"
       class="territory">
      <path
	 d="m 337.625,476.25 -6.67479,10.13149 -9.73146,0.0873 1.84375,-10.125 L 310.1875,471.75 301,461.65625 l -1.84375,2.75 -13.3125,-0.46875 -4.59375,3.21875 -9.65625,-23.4375 -4.96875,4.03125 3.09375,4.125 0.625,22.09375 0,20.15625 4.5625,20.15625 -1.3125,17.53125 0,5.1875 7.8125,16.90625 7.78125,13 -6.46875,5.84375 6.46875,5.21875 1.3125,8.4375 11.6875,12.34375 8.46875,2.59375 3.90625,-1.9375 -1.96875,-7.8125 4.5625,-11.03125 -7.8125,-10.40625 3.90625,-5.84375 0,-3.90625 3.25,-3.90625 -9.09375,-5.1875 4.53125,-5.1875 5.21875,4.53125 3.25,-3.90625 -3.90625,-5.84375 3.25,-2.59375 6.5,1.9375 9.09375,-7.78125 -0.65625,-7.15625 -6.5,-5.84375 0,-2.59375 11.0625,4.53125 7.78125,-2.59375 2.75,-5.375 -21.21875,-15.9375 1.375,-5.0625 9.65625,-7.8125 z"
	 id="path3846"/>
      <path
	 d="m 316.62616,600.88687 -2.75726,7.35272 11.02907,4.1359 11.02906,-1.83818 -12.4077,-3.67636 z"
	 id="path3756"/>
    </g>
  </g>

  <g id="australia"
     class="continent">
  
    <path id="western-australia"
	  d="m 1105.625,534.71875 18.875,-50.5625 -51.4688,-3.21875 14.7813,-49.71875 -6.5,-4.96875 -9.6563,4.15625 -6.9062,7.34375 1.8438,3.6875 -1.8438,1.8125 -4.125,-2.75 -5.9688,10.125 -7.8124,4.125 -26.1876,10.125 -4.1562,32.15625 2.3125,10.5625 -7.3437,10.125 6.875,5.03125 17,-6.875 11.5,0 13.3124,-5.96875 21.1563,-3.21875 7.3437,5.96875 3.2188,8.71875 9.6562,-7.8125 2.75,2.78125 -6.4374,4.59375 2.3124,0 3.6563,0.90625 0.9375,6.4375 -2.3125,4.59375 3.1875,1.84375 z"/>
  
    <g id="eastern-australia">
      <path id="path3758"
	    d="m 1146.0938,414.3125 -5.9688,11.9375 1.375,7.8125 -9.6562,11.5 -17.4376,-12.875 0,-4.125 5.9688,-7.34375 -11.0312,-4.59375 -12.4063,4.59375 -7.8125,11 -1.3125,-1 -14.7813,49.71875 51.4688,3.21875 -18.875,50.5625 5.5625,3.21875 7.8125,-3.21875 4.125,6.875 8.2812,-6.875 5.5,0 0.9376,1.84375 3.6562,-2.3125 -0.4375,-3.21875 28.0313,-27.09375 0.9062,-7.375 4.5938,-3.21875 1.375,-15.625 -22.0626,-29.40625 2.7813,-10.5625 -2.3125,-7.8125 -5.0625,-4.59375 -3.2187,-11.03125 z"/>
      <path id="path3760"
	    d="m 1112.5572,549.41789 c 1.8382,0 12.4077,0.45954 12.4077,0.45954 l -5.0549,7.81226 -6.8932,3.67636 -4.5955,-1.83818 3.6764,-4.1359 z"/>
    </g>
  
    <g id="new-guinea">
      <path id="path3764"
            d="m 1118.0718,378.92688 12.4077,-8.73135 32.1681,15.62452 5.9741,8.2718 -2.2977,2.29772 7.8122,11.02907 8.7314,5.97408 -2.7573,0.91909 -11.4886,-4.59545 -6.4336,-8.2718 -6.8932,-3.67636 -6.4336,7.35272 -8.2718,0.45954 -4.1359,-6.43362 -5.5146,2.29772 -1.8382,-3.21681 5.055,-2.29773 -3.2168,-6.43362 -15.1649,-8.2718 -6.4337,0 -2.2977,-4.59544 3.6764,-2.29773 -8.7314,-4.59544 7.8123,-3.67636 2.7572,2.75727 0.9191,5.05499 z"/>
      <path id="path3766"
            d="m 1174.7106,389.84106 7.123,-0.57443 5.9741,-5.74431 1.3786,0.68932 -0.8042,3.21681 -7.6974,6.54851 -4.1359,-1.03397 -2.2977,-1.26375 z"/>
      <path id="path3768"
            d="m 1198.8367,397.65332 2.068,-2.41261 -3.9061,-3.79124 -1.034,-3.90613 -1.1489,0.22977 0.9191,5.39965 z"/>
      <path id="path3770"
            d="m 1209.8658,400.2957 4.5954,4.25078 1.8382,-1.83817 -5.055,-4.02102 z"/>
      <path id="path3772"
            d="m 1218.1376,402.82319 0.3447,6.43363 3.6763,5.39964 1.1489,-2.18283 -2.8722,-3.79125 -0.5744,-5.7443 z"/>
      <path id="path3774"
            d="m 1181.4889,377.54824 -0.1149,-2.52749 3.5615,0.8042 6.6634,6.31874 0.1149,3.44658 -2.068,-1.37863 -2.6423,-4.25079 z"/>    
    </g>
  
    <g id="indonesia">
      <path id="path3776"
	    d="m 991.57588,389.65135 5.5241,-5.68657 -2.11216,-7.79873 -10.3983,-9.42347 -0.48742,-6.98636 -14.46014,-8.12367 -1.29979,-6.33647 -12.34799,-6.66142 -4.54926,0.16248 4.38679,6.82389 7.9612,6.98636 9.58594,15.11003 3.24947,4.54926 0.81236,5.36163 9.26099,10.07336 z"/>
      <path id="path3778"
	    d="m 1008.6356,360.08117 6.9864,17.54714 15.2725,0.81237 4.5492,2.59957 4.2243,-3.73689 5.3617,-15.27251 4.3868,-3.41194 -4.7118,-7.14884 -0.3249,-5.19915 5.3616,-5.84905 -7.6363,-7.14883 -6.4989,7.31131 -7.3113,2.59957 -2.7621,6.49894 -6.6614,3.087 -1.7872,4.71173 -4.7117,-2.27463 z"/>
      <path id="path3780"
	    d="m 994.98782,395.66287 9.58598,3.73689 5.1991,-1.29979 5.3616,2.76205 17.7097,1.94968 2.2746,-1.94968 -10.3983,-3.41194 -3.2495,-3.41195 -5.6866,0 -3.5744,1.94969 -2.9245,-0.48742 -3.412,-2.59958 -7.31126,-1.78721 -3.57442,2.27463 z"/>
      <path id="path3782"
	    d="m 1076.5495,356.50675 -2.2746,0.16247 -4.2243,2.59958 -2.7621,0.16247 -0.1624,-1.29978 -5.5241,0.16247 -0.8124,-1.13731 -2.5996,0.32494 -4.3868,4.71173 -0.3249,10.72326 -3.5744,4.06183 -0.4874,2.92453 2.9245,2.11215 0.3249,2.92453 -1.4622,0 -0.1625,3.08699 2.4371,1.62474 3.2495,-1.62474 0,-2.92452 -1.7872,-5.68657 3.0869,-2.92453 2.4372,3.087 0.1624,2.4371 5.0367,3.57442 -0.3249,-7.14883 -2.9246,-4.54926 1.7872,-2.92453 5.0367,-2.27462 -0.3249,-1.62474 -5.3617,0.16247 -3.5744,2.11216 -4.2243,-3.24947 3.087,-4.06184 4.3868,-1.46226 3.087,0.64989 3.5744,2.76205 4.7117,-2.27463 z"/>
      <path id="path3784"
	    d="m 1051.6911,280.1442 -0.1625,7.14883 -2.2746,2.92453 0.4874,4.8742 8.1237,7.79873 3.7369,1.13732 3.4119,-0.97485 3.2495,1.62474 0.4874,-3.087 -3.2495,-2.4371 -3.087,0.48742 -5.849,-5.19915 3.4119,-5.36163 -0.4874,-4.71173 -3.8994,-4.54926 z"/>
      <path id="path3786"
	    d="m 1050.0592,313.44179 -8.7314,10.33975 2.7573,1.37863 5.7443,-4.36567 2.7573,-4.36567 z"/>
      <path id="path3788"
	    d="m 1062.2371,329.52584 4.5955,1.14887 1.6084,-2.06796 2.987,3.21682 2.2977,8.04203 5.2848,-3.21682 -3.6764,-3.21681 3.9062,-2.06795 2.987,4.36567 0.4596,-5.97407 -5.055,-11.02907 -1.8382,0 0.2298,5.05499 -5.2848,2.75726 -3.4466,-2.06795 z"/>
    </g>
  </g>
  
  <g id="africa"
     class="continent">
    
    <path id="south-africa"
	  d="m 721.71875,412.15625 -10.90625,3.8125 -5.6875,-0.15625 -5.84375,-0.5 -0.65625,7.8125 4.71875,3.71875 0.8125,7.5 -3.90625,4.375 -3.71875,-1.9375 0.15625,-2.625 1.78125,-1.125 L 698,430.4375 l -6.6875,-3.90625 2.78125,-11.375 -2.125,-4.375 1.46875,-2.78125 -10.25,-8.75 -9.40625,3.71875 1.46875,3.59375 -3.09375,3.71875 0.8125,3.09375 1.9375,3.90625 4.875,2.25 0.15625,1.625 -3.71875,2.78125 -5.375,-4.0625 0,-2.125 -2.25,-1.625 -2.4375,1.78125 -5.375,-3.5625 -13,-1.78125 -2.28125,-5.375 0.34375,-10.71875 -8.46875,-2.75 -2.59375,5.34375 -5.34375,1.46875 L 626.5,396 l -2.28125,-5.53125 -16.375,-0.3125 7.03125,12.65625 -2.75,7.375 2.75,5.5 -8.28125,8.28125 L 605.6875,435 l 0.90625,11.03125 9.1875,17.4375 1.84375,21.15625 11.03125,24.8125 8.28125,10.125 12.84375,-2.78125 7.375,3.6875 33.09375,-31.25 -1.84375,-6.4375 7.34375,-7.34375 7.34375,-5.53125 -3.65625,-13.78125 19.28125,-19.28125 6.4375,-8.28125 -3.4375,-16.40625 z"/>
       
    <path id="east-africa"
	  d="m 703.03125,257.65625 -9.59375,7.3125 -1.59375,-1.625 -34.6875,0 -0.25,8.96875 -2.96875,0 -0.25,20 -2.0625,0 -4.8125,8.5 0,4.59375 8.28125,15.375 0.4375,3.90625 5.28125,3.6875 4.375,6.90625 2.75,0 1.375,3.21875 -1.59375,1.59375 5.28125,5.28125 4.59375,-2.96875 6.4375,4.8125 9.65625,-2.0625 3.65625,0 2.78125,5.28125 1.375,5.28125 -11.5,11.71875 -5.28125,1.15625 -1.375,4.125 -1.375,8.75 -5.28125,1.375 0,6.4375 6.09375,10.125 0.40625,-0.15625 10.25,8.75 -1.46875,2.78125 2.125,4.375 -2.78125,11.375 6.6875,3.90625 0.46875,2.59375 -1.78125,1.125 -0.15625,2.625 3.71875,1.9375 3.90625,-4.375 -0.8125,-7.5 -4.71875,-3.71875 0.65625,-7.8125 5.84375,0.5 5.6875,0.15625 10.90625,-3.8125 -0.21875,-1.0625 -4.625,-22.0625 3.6875,-10.09375 30.34375,-27.59375 16.53125,-33.0625 L 766.53125,310 746.3125,318.28125 735.28125,316.4375 733.4375,305.40625 726.09375,298.96875 707.6875,276 l 0,-11.03125 -4.65625,-7.3125 z"/>
   
    <path id="congo"
	  d="m 650.875,312.96875 -14.875,10.125 -6.4375,5.5 -10.3125,0 -4.375,8.96875 7.125,12.40625 0.6875,3.21875 -3.6875,1.625 -4.59375,-0.25 L 613.5,353.1875 598,353 l -1.5,16.75 11.34375,20.40625 16.375,0.3125 L 626.5,396 l 2.9375,4.53125 5.34375,-1.46875 2.59375,-5.34375 8.46875,2.75 -0.34375,10.71875 2.28125,5.375 13,1.78125 5.375,3.5625 2.4375,-1.78125 2.25,1.625 0,2.125 5.375,4.0625 3.71875,-2.78125 -0.15625,-1.625 -4.875,-2.25 -1.9375,-3.90625 -0.8125,-3.09375 3.09375,-3.71875 -1.46875,-3.59375 9,-3.5625 -6.09375,-10.125 0,-6.4375 5.28125,-1.375 1.375,-8.75 1.375,-4.125 5.28125,-1.15625 11.5,-11.71875 -1.375,-5.28125 -2.78125,-5.28125 -3.65625,0 -9.65625,2.0625 -6.4375,-4.8125 L 673,345.375 l -5.28125,-5.28125 1.59375,-1.59375 -1.375,-3.21875 -2.75,0 -4.375,-6.90625 -5.28125,-3.6875 -0.4375,-3.90625 -4.21875,-7.8125 z"/>
  
    <path id="egypt"
	  d="m 603.15625,214.53125 -3,4.71875 -5.96875,8.9375 2.75,11.03125 -2.75,5.75 3.21875,6.90625 9.875,6.40625 9.65625,1.625 3.6875,-2.53125 7.5625,1.15625 25.71875,16.71875 0.0312,-2.9375 2.96875,0 0.25,-8.96875 34.6875,0 1.59375,1.625 9.59375,-7.3125 -16.46875,-25.78125 3.6875,-1.84375 4.59375,3.6875 3.65625,-1.84375 -5.5,-7.34375 -10.125,-3.6875 -9.1875,3.6875 -30.3125,-11.96875 -6.4375,8.28125 3.65625,2.75 -6.4375,3.6875 -12.84375,-4.59375 -4.59375,-7.34375 z"/>
     
    <path id="north-africa"
	  d="m 596.5,192.34375 -11.03125,5.53125 -16.5625,-0.9375 -21.125,11.03125 -11.03125,-5.5 -11.9375,12.875 -6.4375,2.75 0.90625,13.78125 -14.6875,8.28125 -14.71875,24.8125 -3.6875,9.1875 8.28125,10.09375 -7.34375,15.625 11.9375,22.0625 20.21875,21.15625 9.1875,0.90625 11.96875,-6.4375 6.40625,5.53125 24.84375,-12.875 6.40625,9.1875 11.03125,0 9.1875,10.125 L 598,353 l 15.5,0.1875 0.90625,1.375 4.59375,0.25 3.6875,-1.625 -0.6875,-3.21875 -7.125,-12.40625 4.375,-8.96875 10.3125,0 6.4375,-5.5 14.875,-10.125 -4.0625,-7.5625 0,-4.59375 4.8125,-8.5 2.0625,0 0.21875,-17.0625 -25.71875,-16.71875 -7.5625,-1.15625 -3.6875,2.53125 -9.65625,-1.625 -9.875,-6.40625 -3.21875,-6.90625 2.75,-5.75 -2.75,-11.03125 5.96875,-8.9375 3,-4.71875 -2.0625,-0.125 -4.59375,-9.1875 5.5,-8.28125 -5.5,-4.59375 z"/>
     
    <path id="madagascar"
	  d="m 758.75133,419.70895 4.22431,10.39831 -15.27251,47.11732 -8.44862,2.27462 -5.19916,-2.59957 -1.62473,-12.67294 6.49894,-9.74841 0.64989,-4.8742 -3.24947,-2.27463 2.27463,-9.42347 8.77357,-2.27463 10.39831,-10.07335 z"/>
  </g>

  <g id="north-america"
     class="continent">
     
    <path id="central-america"
	  d="m 162.53125,245.125 -2.96875,-0.25 -4.25,-4.875 0,-5.84375 -4.53125,-5.84375 -3.59375,0 -4.875,3.25 -3.5625,-3.90625 -1.3125,-4.53125 -4.53125,-3.90625 -5.53125,0 -1.625,2.59375 -11.03125,-0.65625 -9.75,-5.1875 -11.9375,-0.28125 0.21875,0.9375 0,9.09375 5.21875,8.125 -2.125,4.21875 2.125,3.65625 3.5625,2.84375 1.3125,5.84375 4.53125,6.5 3.59375,0.65625 -5.21875,-6.8125 0,-9.4375 -5.53125,-9.75 -1.625,-8.4375 2.625,-3.90625 5.5,3.25 0,7.78125 6.84375,11.375 3.25,4.25 -1.96875,2.59375 6.1875,4.53125 4.875,10.09375 -0.96875,7.46875 -1.96875,3.5625 25.03125,14.625 8.78125,2.59375 10.40625,-2.59375 7.125,7.15625 12.03125,8.4375 L 194,301.75 l 0.96875,3.5625 0.3125,3.25 5.21875,3.25 1.625,6.1875 9.09375,7.46875 2.59375,0 8.125,3.25 0.65625,-4.21875 5.53125,-0.96875 4.53125,3.25 3.90625,-0.96875 -5.1875,-4.875 -4.25,-1 -4.875,1.96875 -7.46875,-0.34375 -6.15625,-6.15625 2.28125,-23.71875 -8.46875,-1.96875 -6.5,2.28125 -5.53125,-1.9375 10.40625,-22.75 -5.1875,-1.96875 -8.125,1.96875 -3.90625,8.78125 -10.0625,4.53125 -7.8125,-1.28125 -7.78125,-12.375 0.625,-12 3.96875,-9.84375 z"/>
       
    <path id="western-united-states"
	  d="m 133.875,220.03125 13.3125,-1.46875 6.5,-21.125 37.375,-0.96875 3.59375,-10.0625 -4.5625,-13.65625 4.875,-9.4375 3.5625,-11.03125 -0.625,-10.0625 -82.875,0 -4.21875,7.125 -3.25,2.28125 0,-1.9375 2.28125,-2.59375 -7.15625,-0.65625 -0.96875,6.5 -6.1875,10.375 -6.15625,4.5625 -1.625,6.8125 -5.53125,5.875 1.9375,3.25 -3.5625,2.90625 1.625,4.5625 3.25,1.9375 -3.25,1.9375 1.9375,3.25 0.96875,9.4375 6.84375,2.9375 1.0625,4.90625 11.9375,0.28125 9.75,5.1875 11.03125,0.65625 1.625,-2.59375 5.53125,0 0.96875,0.8125 z"/>
  
    <path id="eastern-united-states"
	  d="m 309.15625,159.84375 -1.28125,-3.65625 1.625,-2.78125 -1.125,-4.21875 -6.1875,2.125 c 0,0 -5.33752,5.6626 -5.5,6.3125 -0.0812,0.32495 -1.30176,0.71567 -2.5,1 -1.19824,0.28433 -2.375,0.46875 -2.375,0.46875 l -10.25,0.15625 -20.625,7.96875 -8.78125,7 -5.84375,-0.5 L 246,170 l 3.25,-2.9375 0.78125,-3.90625 L 245,153.75 l -16.40625,-7.3125 -13.65625,-4.21875 -17.03125,0 0.625,10.0625 -3.5625,11.03125 -4.875,9.4375 4.5625,13.65625 -3.59375,10.0625 -37.375,0.96875 -6.5,21.125 -13.3125,1.46875 3.5625,3.09375 1.3125,4.53125 3.5625,3.90625 4.875,-3.25 3.59375,0 4.53125,5.84375 0,5.84375 4.25,4.875 2.96875,0.25 2.875,-7.0625 18.84375,-11.6875 14.625,5.5 1.625,-6.5 8.78125,-1.28125 7.125,4.21875 4.875,-1.3125 3.90625,4.25 -0.65625,6.5 2.28125,8.75 2.9375,2.625 3.875,-5.21875 0,-5.1875 -1.9375,-6.84375 0.3125,-8.4375 10.09375,-10.0625 13,-7.15625 5.84375,-7.15625 -0.34375,-3.5625 -1.28125,-0.96875 1.625,-5.53125 13.96875,-8.125 2.28125,-4.875 4.875,1.3125 10.0625,-4.875 0.3125,-4.25 16.71875,-8.34375 z"/>

    <path id="quebec"
	  d="m 275.5,133 -8.5625,15.21875 0,4.0625 14.59375,6.96875 0.0312,0 10.25,-0.15625 c 0,0 1.17676,-0.18442 2.375,-0.46875 1.19824,-0.28433 2.41877,-0.67505 2.5,-1 0.16248,-0.6499 5.5,-6.3125 5.5,-6.3125 l 6.1875,-2.125 1.125,4.21875 -1.625,2.78125 1.28125,3.65625 0.1875,-0.0937 10.71875,-3.5625 0.65625,1.9375 -8.4375,4.5625 0.65625,2.90625 3.25,0.34375 4.875,-4.5625 12.34375,-2.59375 6.5,-6.5 -2.625,-2.28125 -5.84375,6.5 -5.84375,0 3.5625,-3.25 -1.9375,-1.3125 -3.25,1.96875 -3.90625,-3.59375 3.25,-3.875 1,-4.5625 -6.5,0 -8.125,4.875 -3.59375,0.34375 -1.28125,-1 5.84375,-4.875 13,-5.84375 10.71875,0.96875 2.59375,1.625 16.25,-5.1875 8.78125,-4.875 2.59375,-4.21875 -3.90625,-4.21875 -4.53125,0 -4.25,3.25 -1.28125,-2.28125 3.25,-2.9375 -2.28125,-7.15625 -2.28125,-0.96875 3.59375,-3.875 -3.90625,-3.90625 2.28125,-2.9375 -2.9375,-2.90625 -7.15625,5.5 -6.15625,1.96875 -4.25,-3.90625 L 332.75,94.125 326.25,88.25 315.84375,85.65625 310,87.9375 l -2.9375,8.125 -3.25,2.59375 -3.5625,1.3125 0.65625,7.78125 -3.25,6.1875 L 288.875,115.875 284,121.09375 282.71875,127.25 275.875,133.4375 275.5,133 z"/>
  
    <path id="ontario"
	  d="m 248.25,95.40625 -27.9375,0 -29.03125,46.8125 6.625,0 17.03125,0 13.65625,4.21875 L 245,153.75 250.03125,163.15625 249.25,167.0625 246,170 l 0.3125,3.71875 5.84375,0.5 8.78125,-7 20.59375,-7.96875 -14.59375,-6.96875 0,-4.0625 L 275.5,133 l -4.8125,-5.75 4.21875,-10.0625 -4.5625,-2.28125 -6.8125,-0.96875 -3.25,-3.25 -11.6875,-2.59375 -3.59375,-8.125 3.25,-4.5625 z"/>
  
    <path id="alaska"
	  d="m 109.1875,115.96875 1.375,0.375 2.75,-4.84375 -2.1875,-2.6875 1.625,-6.25 -3.09375,-5.125 -4.6875,-0.0625 -1.78864,-0.94295 -3.906249,-6.59375 41.632389,-31.61955 -33.34375,-6.03125 -13,0.65625 L 71.15625,60 60.75,60.65625 57.84375,62.59375 63.6875,68.125 56.875,70.71875 52,69.40625 40.625,72 l -2.9375,2.625 3.25,1.28125 4.5625,1.625 4.53125,-1.28125 2.28125,-1 2.59375,1 -8.125,5.1875 L 32.8125,83.375 26,88.25 l 1.28125,3.25 0,2.625 -6.5,3.875 3.59375,3.59375 6.5,-2.59375 1.625,1.9375 -13,7.15625 -12.6875,3.875 2.9375,1.625 4.875,-0.625 20.78125,-10.09375 6.84375,-0.3125 11.375,-7.46875 4.53125,-1.3125 3.25,2.28125 7.46875,-1.9375 6.1875,-3.25 16.90625,3.875 8.125,4.875 4.21875,1.96875 2.28125,0.96875 1.9375,3.90625 -0.3125,3.875 1.28125,5.21875 z"/>
   
    <path id="alberta"
	  d="m 220.46875,95.40625 -0.21875,-0.1875 -119.00739,-2.0367 1.9375,3.25 1.78864,0.94295 4.6875,0.0625 3.09375,5.125 -1.625,6.25 2.1875,2.6875 -2.75,4.84375 -1.375,-0.375 -4.21875,5.125 2.59375,5.1875 -3.59375,3.25 4.25,4.5625 2.90625,1.9375 3.90625,6.1875 76.25,0 29.03125,-46.8125 z"/>
  
    <path id="northwest-territory"
       d="m 290.5,49.28125 -10.40625,5.1875 -0.3125,1.9375 3.90625,1.96875 -2.28125,2.90625 -6.8125,1.96875 -6.1875,4.875 -4.5625,-4.875 -14.28125,0.65625 -3.5625,-2.9375 -9.4375,3.5625 -4.21875,5.875 -3.25,-6.5 -14.625,1.625 -1.3125,-2.28125 3.90625,-1.625 -0.96875,-1.625 -6.5,0 -6.1875,-3.59375 -10.375,-0.3125 -2.28125,0.96875 -5.84375,-2.28125 -5.53125,2.28125 -3.90625,-1.28125 -14.28125,3.875 -12.375,0 -7.90625,-1.4375 -41.632389,31.61955 1.968749,3.34375 119.00739,2.0367 0.21875,0.1875 27.78125,0 1.625,-2.28125 20.46875,-10.375 -0.3125,-3.25 2.9375,-0.65625 0.3125,1.9375 14.625,-3.90625 -4.5625,-3.875 2.9375,-2.59375 4.875,2.59375 4.875,-2.59375 13.65625,-0.65625 8.125,-6.84375 1.28125,-2.90625 -2.28125,-1.625 -8.125,0 -6.8125,6.5 L 296.34375,66.5 295.375,63.90625 299.28125,60 l -3.59375,-2.28125 -2.90625,1.9375 -1.96875,-4.21875 2.28125,-3.90625 z"/>
    
    <path id="greenland"
	  d="m 378.66467,25.996699 19.76042,-2.06795 17.00314,-7.812257 17.23292,-1.608405 10.33975,2.757267 35.38493,-5.514534 6.43362,0 7.35271,0.919089 4.36568,-2.067951 18.38178,2.067951 6.20385,4.365672 4.82522,-0.229772 9.42066,-1.378633 -1.37864,2.06795 -3.67635,1.608406 -4.1359,0 -6.6634,1.608405 -0.22977,2.067951 -4.59545,3.216811 1.83818,3.446584 -7.81225,9.19089 -8.50158,3.676356 -5.7443,1.378634 -0.68932,-1.378634 -2.06795,2.297723 10.33975,7.582484 -3.90613,1.378633 -7.81225,-5.054989 -2.5275,0.689317 2.06795,2.297722 -0.45954,1.608406 -3.67636,0.919089 0.68932,2.297722 6.43362,-1.378633 2.75727,2.757267 -19.76042,5.05499 -4.82521,-2.067951 -7.81226,2.98704 -8.73135,6.433623 -7.35271,1.148861 -10.79929,2.06795 -14.01611,18.152008 -6.6634,3.216812 -10.33975,-6.663396 -4.1359,-7.12294 0,-2.757267 1.60841,-2.06795 -0.91909,-5.974078 2.29772,-4.825218 9.42066,-5.054989 2.5275,-4.825218 -3.44659,-6.663395 -3.67635,-1.378633 1.14886,-3.446584 -7.58248,-10.799296 -5.28477,-0.919089 -5.05499,-0.689317 -3.21681,1.608406 -6.20385,-1.148861 -3.67635,-1.148862 z"/>
  </g>
  
  <g id="asia"
     class="continent">

    <path id="siam"
	  d="m 995.96875,266.65625 -10.625,-8.8125 -14.125,4.59375 0.34375,4.59375 -7.0625,-0.375 -6.71875,-10.9375 -4.25,-2.5 -1.40625,-3.53125 4.59375,-6.71875 -7.4375,-6.71875 -9.875,7.78125 0.34375,8.84375 -3.90625,6.375 2.125,5.3125 -5.4375,2.59375 13.40625,17.53125 -1.9375,3.03125 4.59375,4.75 4.21875,-5.46875 3.90625,0.1875 6.375,17.5 -0.90625,20.84375 9.1875,7.4375 c 0,0 6.01072,17.32414 6.1875,18.03125 0.17677,0.7071 6.71875,5.28125 6.71875,5.28125 L 988,357.34375 988.625,355 986,345.375 l -3.625,-7.875 -10.5,-7.75 -0.625,-2.875 -4.5,-7 0.125,-6.25 1.75,-1.125 0.125,-5.375 -1.375,-0.75 0.5,-3.875 2.75,-0.625 15.5,14.875 1,-1 3.5,0 1.625,2.75 -2,1.25 0,2.25 1.25,2.125 4.875,-3.625 1.25,-3.625 5.375,-2.25 4.5,-6 -0.625,-7.75 -6.75,-11.75 L 989.75,279 l -1,-5.5 5.25,-6 1.96875,-0.84375 z"/>
  
    <path id="china"
	  d="M 1018.2188,182.125 1006.5,171.5 l -3.5,-2 -0.75,3.25 -4.25,0.25 -1.5,2.25 -4.25,-3.75 -0.25,5.25 2.25,2.75 -15,5.5 -1.5,7.5 -7.25,-2.25 -2.5,-5.25 -3.75,1.75 2.5,4 -3.5,3 -6.5,-2.75 2.25,-3.5 -3.5,-3.5 -6.25,4.5 -7.25,-5 -0.5,-5 -7.5,1 -23.25,-19 -9.5,0 -8.75,-11 -3.75,-1 -9.5,-7.5 -6.25,4 3.25,5.25 -4.5,2.75 -1.75,-2.25 -4.25,3.25 -0.25,3.25 -8,3.25 6.25,6.75 0,4.25 -12.5,8.75 -3.75,0 -7.75,3.5 7.75,7 -0.3125,3.53125 13.0625,8.46875 8.5,1 3.5,5 -2,3 1.25,2.5 -3,4.25 9.5,7.75 9.5,0.5 6.25,5.5 10,-0.5 7,5.75 8.75,-1.5 5.25,2.75 3.75,-0.75 4.75,-6 8.25,-0.25 6.5,5.5 1.28125,-1 7.4375,6.71875 -4.59375,6.71875 1.40625,3.53125 4.25,2.5 6.71875,10.9375 7.0625,0.375 -0.34375,-4.59375 14.125,-4.59375 10.625,8.8125 L 999.75,265 l 3.25,1.625 1.625,3.625 1.5,-0.375 5.375,-5 5.375,-1.25 13.5,-3.875 7.625,-7.25 7,-22.25 -1.375,-2.375 -4.625,-0.75 -0.125,-1.625 3,-0.75 -1.125,-2.875 -7,-4.875 -3.625,-7.75 -4.25,-2.5 0,-5.75 7.875,-4.375 0.75,-1.625 -6.25,-2.25 -2.125,-0.125 -3.125,3.25 -10.25,-6.875 -0.125,-2 5.5938,-4.875 z"/>

    <path id="middle-east"
	  d="M 798.25,202.59375 794.5,196 l -14,-5.25 -8.75,1.75 -8.5,5.75 -9.21875,-6.4375 -0.0312,0.4375 -5.25,-0.5 -6.5,-6.5 -7.5,3.25 -17.75,-12.8125 0,0.46875 -9.375,3.375 -11.65625,-4.625 -11.125,-0.875 -5.125,3.53125 -8.15625,0.90625 -3.6875,3.53125 -3.5625,-0.375 -4.0625,2.65625 3.03125,3.71875 -0.71875,3.90625 4.59375,4.75 3.53125,1.96875 4.59375,0 1.0625,-1.59375 4.78125,0 3,3.15625 4.40625,-0.15625 4.4375,-2.46875 6.53125,0.15625 -3.875,22.46875 -2.59375,4.3125 5.6875,7.5625 0.625,7.21875 16.4375,20.5 1.0625,8.3125 15.71875,19.625 0.71875,9 2.46875,6.375 3.875,3 24.9375,-9.71875 11.3125,-10.4375 5.65625,-0.875 18.375,-19.8125 0,-3 -14.84375,-10.59375 -1.0625,-2.5 1.78125,-1.75 L 784,244.75 l -10.0625,9.71875 -9.03125,-0.1875 -0.53125,-1.40625 2.125,-2.65625 -0.71875,-3.53125 -1.75,0 -2.46875,3.375 -3.53125,-1.59375 -1.25,-6.375 -7.4375,-11.84375 5.125,-4.25 4.78125,2.5 4.59375,8.46875 10.625,6.375 3.53125,0 4.0625,-2.125 3.53125,0 7.78125,8.125 14.53125,0.5 L 805.25,246.5 l 4.75,-5 -0.5,-3.75 -7.5,-7.75 1.25,-6.75 -8,-13.75 3,-6.90625 z"/>    

    <path id="afghanistan"
	  d="M 867.09375,152.96875 850,139.25 845.25,128.5 836,126 l -8.25,-7.75 -3.75,5 -10,-3 -6.25,-6 -6,1 -10.5,5 -11.25,0.5 -3.1875,7.78125 5.6875,5.21875 -6.5,3.25 -9.25,-3 -7.5,2.5 -13,-6.75 -8.5,4.5 -0.25,4 -4.5,0.75 -1.25,5.75 11.5,9.5 -1.5,8.75 12.75,15.75 -0.46875,13.0625 9.21875,6.4375 8.5,-5.75 8.75,-1.75 14,5.25 3.75,6.59375 0.25,-0.59375 4.25,0.75 6,-2.5 1.25,-4.75 5.25,-3 7.25,4 6.75,-2.75 3,-4.5 4.5,3.25 1.25,2.75 8.75,-1.25 0.4375,0.28125 0.3125,-3.53125 -7.75,-7 7.75,-3.5 3.75,0 12.5,-8.75 0,-4.25 -6.25,-6.75 8,-3.25 0.25,-3.25 1.34375,-1.03125 z"/>
    
    <path id="ural"
	  d="M 873.9375,144.40625 870.5,142.75 l -2.25,-4.25 -9,-4.25 13,-8 -15.5,-14.75 7,-3.25 6.25,0.75 -3,-5.5 -5.75,-0.75 1.75,-4 -13.25,-4 -2.5,0.75 L 845,92.25 846.5,88 840.75,87 839,78.75 825.25,72.25 812,58.75 806,60.5 802.75,57 805,54.5 l -7.125,-7.9375 -5.375,3.8125 -7.125,-0.75 0.75,4 6.625,4.875 3,4.5 -1.625,5 -5.75,3.125 -2.875,-1.5 4.625,-6.25 -13.75,-17.75 -6.625,0.25 -4.5,5 2.5,4.625 6.75,2.875 1.875,2.75 -3.25,2.625 -4.125,-3 -9.375,-1.96875 0.375,5.46875 5.75,3.5 -16.5,11.5 0.75,4 4.25,6 2.25,3 0.25,6 3.5,4 -3.25,7.5 9,2.5 1,2.75 -5.5,0.5 0.75,3 9.25,-2.5 2,3.25 -3,3.5 6.3125,5.78125 L 780,120.75 l 11.25,-0.5 10.5,-5 6,-1 6.25,6 10,3 3.75,-5 8.25,7.75 9.25,2.5 4.75,10.75 17.09375,13.71875 L 870,150.75 l 1.75,2.25 4.5,-2.75 -3.25,-5.25 0.9375,-0.59375 z"/>
    
    <path id="mongolia"
	  d="M 1054.2812,172.40625 1052.25,170.5 l 2.25,-4 -3.5,-4.75 6,-7.5 -1.75,-3.25 0.5,-3.25 -3.25,-3.25 -9.25,4.75 -9,-5.75 -15.5,-5.75 -3,-5 -7.25,-7 -10.5,-4 -12.5,2.75 4.5,5.25 1,8 -8.25,2.75 -10.5,-3 -5.5,4.5 -9.5,-1.75 -11.75,-4 -12.25,0.5 -7.75,-5.5 -9.75,-2.5 -3.25,5 4,3 -1.25,1.75 -10,-1.25 -8.5,-3.5 -5.25,1.25 -5,3 -2.5625,0.84375 0.3125,1.15625 -2.84375,2.6875 7.34375,5.8125 3.75,1 8.75,11 9.5,0 23.25,19 7.5,-1 0.5,5 7.25,5 6.25,-4.5 3.5,3.5 -2.25,3.5 6.5,2.75 3.5,-3 -2.5,-4 3.75,-1.75 2.5,5.25 7.25,2.25 1.5,-7.5 15,-5.5 -2.25,-2.75 0.25,-5.25 4.25,3.75 1.5,-2.25 4.25,-0.25 0.75,-3.25 3.5,2 11.7188,10.625 5.0312,-4.375 3.5,2.375 0,4.25 2,2.25 6.875,-4 7.25,4.5 -1.5,4.125 5.25,1 5.875,4.5 4,10.875 9.5,-4 -3.5,-8.25 -14.25,-9.25 0.25,-2.875 4.25,-1.75 2,-2.5 -2,-2.625 1.125,-3.375 0.4062,-0.59375 z"/>
    
    <path id="irkutsk"
	  d="M 1035.9375,144.5625 1037.5,141 l -9.25,-8 3.75,-3.25 4,-3.25 -3.5,-4 -2.5,2.5 -6.5,-0.25 -5.5,-3.75 4.25,-6.75 -8.5,-1 -14.5,-0.5 -15.5,-4.25 -11,0.5 -12.5,-12.25 -5,0.25 -2.5,-4 -6.5,0.25 -2.5,5.75 -13.25,-0.5 -0.25,-7.25 -16.5,-12.25 -4.0625,0.125 0.8125,0.625 -2.75,3 5.5,4.5 -3.5,7 4.5,0.25 4,6 -6.5,-1 -6,7.25 -3,-2.75 -4.75,1.25 2.75,4.75 -0.5,5.25 3,2.25 -2,3.75 -7.25,3.5 -1.25,4.25 -7,0.25 -2.75,-2.5 -4.5,4.75 4.75,4.75 0.6875,2.59375 L 886.5,138 l 5,-3 5.25,-1.25 8.5,3.5 10,1.25 1.25,-1.75 -4,-3 3.25,-5 9.75,2.5 7.75,5.5 12.25,-0.5 11.75,4 9.5,1.75 5.5,-4.5 10.5,3 8.25,-2.75 -1,-8 -4.5,-5.25 12.5,-2.75 10.5,4 7.25,7 3,5 15.5,5.75 1.6875,1.0625 z"/>
    
    <path id="kamchatka"
	  d="m 1056.25,57.34375 -4,5.40625 7.5,2 -1.25,3 -11,-1 -0.5,5.5 4,0.25 -1.5,2.5 -13.5,-0.75 -5.5,3.25 7.25,7.25 -1.25,1 -13,-2 -4,4.75 5.25,5.5 -3.5,3.5 -13,2 0.75,6.75 3,0.75 1.2812,6.21875 0.4688,0.0312 8.5,1 -4.25,6.75 5.5,3.75 6.5,0.25 2.5,-2.5 3.5,4 -4,3.25 -3.75,3.25 9.25,8 -1.5625,3.5625 7.3125,4.6875 9.25,-4.75 3.25,3.25 -0.5,3.25 1.75,3.25 -6,7.5 3.5,4.75 -2.25,4 2.0312,1.90625 2.8438,-3.90625 2.25,0.125 3.125,1.125 3.875,-2.125 1.625,-3.5 3,-6.25 -0.25,-18.5 -2.625,-3.25 -12.625,-14.875 -4.75,-1.5 -5,1.75 -8.375,-2.875 -4.375,-2.5 2.625,-1.75 2.25,-11 6.625,-5.5 6.5,0.875 7.625,0 3.5,-1.25 4.875,0.125 7.5,2.875 4.625,-2.375 -1.25,-2.375 1,-7.25 3.75,-0.875 6.375,2 4.375,3 2.375,-2.75 -1.625,-2.875 4.375,-2 5,7.125 -1.875,6.125 -3.125,6.5 0.25,4.375 11.625,12.375 10,11.375 2,0.125 3,-2.625 -1.125,-4 -1.5,-6.875 2.75,-0.75 -4.25,-9.5 -2.375,-2.125 -6.75,-3.5 -3.625,-5.25 4,-2.5 3.625,-0.75 6.375,-3.625 3.25,2.875 2.625,-0.125 8.75,-8.375 5.75,0.875 3.125,-0.625 -0.25,-2.125 -19.25,-7 1,-2.375 4.125,1.25 4.375,-0.25 -3.25,-1.75 -1.25,-2.875 4.5,0.25 6.5,2.75 2.625,-1.25 7.125,4.125 5.5,0.375 2.125,-2.625 -7.625,-5.875 -5.625,-1.25 -4.375,1.75 -8.625,-4.25 -12.5,-1.875 -16.375,-4.625 -17.625,-2.75 -8.75,0.375 4.125,3.125 -2.375,1.5 -6,-3.125 c 0,0 -11.0147,-0.158823 -17.875,-0.28125 z"/>
    

    <path id="yakutsk"
	  d="m 888,42.125 -2.25,0.5625 10.5,8.0625 -2.75,4.5 -4.5,2 3.25,4.5 9.75,12.25 5.25,3.25 2.4375,1.875 4.0625,-0.125 16.5,12.25 0.25,7.25 13.25,0.5 2.5,-5.75 6.5,-0.25 2.5,4 5,-0.25 12.5,12.25 11,-0.5 15.5,4.25 14.0312,0.46875 L 1012,107 l -3,-0.75 -0.75,-6.75 13,-2 3.5,-3.5 -5.25,-5.5 4,-4.75 13,2 1.25,-1 -7.25,-7.25 5.5,-3.25 13.5,0.75 1.5,-2.5 -4,-0.25 0.5,-5.5 11,1 1.25,-3 -7.5,-2 4,-5.40625 c -2.3507,-0.04195 -5.9974,-0.06185 -6.125,-0.09375 -0.5,-0.125 -9.75,-4.125 -9.75,-4.125 L 1010.5,52.25 1003.125,48.625 997,48.75 994.125,46.625 976.75,45.75 l -1.625,1.75 2.5,2 -6,3.25 -7.25,-2 -4.125,0 -4.25,2.875 -2.625,-0.25 -15.125,-9.75 -14.25,0 -7,1.625 L 905.75,42.875 898.875,44.5 888,42.125 z"/>
    
    <path id="siberia"
	  d="m 848.25,28.875 -6.625,5.625 -7.75,-0.75 -19.875,2.75 0.375,2 2.5,1.875 -2.5,1.875 -10,-0.25 -6.5,4.5625 7.125,7.9375 -2.25,2.5 3.25,3.5 6,-1.75 13.25,13.5 13.75,6.5 1.75,8.25 5.75,1 -1.5,4.25 2.25,3.25 2.5,-0.75 13.25,4 -1.75,4 5.75,0.75 3,5.5 -6.25,-0.75 -7,3.25 15.5,14.75 -13,8 9,4.25 2.25,4.25 3.4375,1.65625 L 879.25,141 881.40625,142.6875 884.25,140 l -1,-3.75 -4.75,-4.75 4.5,-4.75 2.75,2.5 7,-0.25 1.25,-4.25 7.25,-3.5 2,-3.75 -3,-2.25 0.5,-5.25 -2.75,-4.75 4.75,-1.25 3,2.75 6,-7.25 6.5,1 -4,-6 -4.5,-0.25 3.5,-7 -5.5,-4.5 2.75,-3 -3.25,-2.5 L 902,74 892.25,61.75 889,57.25 l 4.5,-2 2.75,-4.5 -10.5,-8.0625 -9.5,2.3125 -1.875,-2.25 10.5,-6.125 -4.375,-4 -21,0 L 855,29 848.25,28.875 z"/>

    <g id="japan">
      <path id="path3039"
	    d="m 1089,158.875 7.75,5.625 9.5,3 0.125,1.875 -3.875,1.125 0,2.5 -7.25,-2.25 -2,0 0,5 -4.5,-5.375 3.5,-4.25 -3.625,-5.875 z"/>
      <path id="path3041"
	    d="m 1094.625,180.125 4.875,9.625 -2.5,5.25 -5.25,4 -6.75,4.25 -2.125,-1.375 -3.25,0 -3.625,4.5 -3.375,1.125 5.375,1.625 5.375,-2 5.875,-0.25 3.75,5.25 1.5,-6.25 10,-0.875 3.375,-4.875 -0.375,-3.25 -3.25,-4.125 0.375,-4.25 0.875,-0.75 -0.75,-3 -4.375,-4.75 -3.375,-1.875 -2.375,0.25 z"/>
      <path id="path3043"
	    d="m 1077.125,222.125 -1.25,-4 -2.75,-4 -1.625,-0.25 1.625,-3.75 4,2.375 1.875,3.5 0.375,3.25 -1.25,2.5 z"/>
      <path id="path3045"
	    d="m 1081.25,212.125 2.25,3.375 2.75,-2.375 0.25,-3.25 -2.875,-0.125 z"/>
    </g>
    
    <g id="india">
      <path id="path3055"
	    d="m 948,237.25 -6.5,-5.5 -8.25,0.25 -4.75,6 -3.75,0.75 -5.25,-2.75 -8.75,1.5 -7,-5.75 -10,0.5 -6.25,-5.5 -9.5,-0.5 -9.5,-7.75 3,-4.25 -1.25,-2.5 2,-3 -3.5,-5 -8.5,-1 -13.5,-8.75 -8.75,1.25 -1.25,-2.75 -4.5,-3.25 -3,4.5 -6.75,2.75 -7.25,-4 -5.25,3 -1.25,4.75 -6,2.5 -4.25,-0.75 -3.25,7.5 8,13.75 -1.25,6.75 7.5,7.75 0.5,3.75 -4.75,5 2.65625,3.34375 10.75,0.375 2.28125,-2.46875 4.25,0.34375 11.3125,11.6875 5.5,-0.1875 0,2.46875 -3.71875,1.25 3,4.25 6.1875,1.59375 2.8125,-2.65625 -1.03125,-3.1875 3.53125,0.34375 2.125,6.03125 -1.59375,1.03125 -0.1875,4.96875 19.28125,47.90625 6.34375,2.46875 7.0625,-9.90625 0.375,-9 1.59375,-3.90625 -1.78125,-5.8125 -0.6875,-2.65625 18.71875,-18.21875 7.0625,-4.59375 1.4375,-7.0625 16.0625,-3.375 3.5625,5.125 0.375,0.5 5.4375,-2.59375 -2.125,-5.3125 3.90625,-6.375 -0.34375,-8.84375 L 948,237.25 z"/>
      <path id="path3057"
	    d="m 889,321 5.5,7 0.75,5 -4.25,3.25 -2.75,-1.5 -1,-7.75 z"/>
    </g>
  </g>
  
  <g id="europe"
     class="continent">
         
    <path id="scandinavia"
	  d="M 655.8125,93.28125 664.75,85 658.5,77.25 659,72.5 l -3.25,-3 3,-4 -5.25,-3 -0.25,-4.25 4.53125,-3.21875 L 650,53.125 l -4.25,1.0625 -8.65625,-0.875 -20.84375,7.59375 -2.3125,4.25 -8.3125,6.875 -0.53125,2.84375 -9.53125,7.25 -9.375,3.15625 -4.40625,5.65625 1.9375,3.71875 -1.0625,3.375 4.9375,5.125 4.96875,-0.1875 6.34375,-4.0625 4.96875,5.125 1.75,6.1875 2.5,3.1875 2.625,0.34375 6.71875,-3.34375 2.65625,-8.5 6.5625,-4.40625 0.53125,-2.65625 -4.09375,-0.875 -3.34375,-4.59375 1.9375,-5.3125 5.5,-2.84375 4.40625,-4.40625 4.9375,-5.3125 2.65625,-0.53125 3,1.4375 -0.15625,5.125 -7.4375,8.65625 0.34375,4.0625 6.375,4.59375 5.3125,0 3.875,-1.25 4.59375,-0.53125 0.6875,0.21875 z"/>
      
    <path id="western-europe"
	  d="M 587.8125,165.53125 584.75,160.75 l 1.25,-1.5 -0.75,-3.5 -4,-2 6.5,-5.75 1,-5.25 -13.75,-3.5 -3.4375,-6.625 -2.34375,1.625 -6.375,5.65625 -9.71875,3.90625 -8.46875,0 c -2.12132,0 -0.375,2.46875 -0.375,2.46875 l 4.4375,1.0625 5.84375,4.25 1.5625,7.78125 -3.53125,8.3125 -12.1875,0.15625 -4.25,-2.65625 -8.46875,0.375 -2.3125,4.75 1.25,4.25 -3.1875,12.71875 0.875,7.4375 6.375,0.1875 6,4.40625 1.59375,-2.28125 8.125,0.34375 5.125,-2.3125 2.5,-3 3.15625,-0.34375 2.3125,-3.1875 -2.84375,-3 7.96875,-7.96875 6.53125,-3.15625 -0.53125,-3.375 -0.6875,-2.46875 5.8125,-1.40625 6.90625,0.875 5.125,-2.46875 0.0312,-0.0312 z"/>
      
    <path id="southern-europe"
	  d="m 668.46875,161.125 -3.71875,-2.375 -0.25,-3.5 -6.25,-8.25 -8.5,1.75 -5.25,0.5 -2.5,-1.5 -2,5.5 -5.75,2.5 -10,0 -4.75,-3.5 4.25,-5 -3.75,-4.5 -7.25,0.25 -8,6 -2.5,0.5 -4.5,3 -3,-4.75 L 590,149 587.8125,147.71875 587.75,148 l -6.5,5.75 4,2 0.75,3.5 -1.25,1.5 3.0625,4.78125 3.34375,-3.5 4.75,0.34375 3.90625,6.53125 5.125,4.96875 7.78125,4.21875 5.8125,4.78125 1.96875,3.1875 -1.59375,3.71875 1.75,1.21875 3.375,-5.46875 -3.1875,-2.84375 3,-1.75 2.125,0.6875 3.71875,0.71875 -0.375,-1.75 -9.71875,-4.4375 -8.3125,-5.84375 -0.15625,-2.625 -6.375,-3.375 -2.28125,-4.25 6.1875,-2.8125 10.9375,9.375 9.1875,3.34375 4.4375,5.65625 0.34375,6.90625 3.71875,4.40625 6.1875,1.0625 1.78125,1.78125 -5.3125,1.21875 1.9375,4.0625 5.125,2.65625 c 0,0 1.23039,-2.82506 1.9375,-4.0625 0.70711,-1.23744 0,-2.46875 0,-2.46875 l -2.65625,-5.125 0,-4.78125 3.71875,-0.34375 5.125,-3.1875 4.96875,1.40625 7.9375,-0.875 0.375,-1.9375 -3.375,-2.65625 0.34375,-7.0625 3.09375,-5.5 z"/>
      
    <path id="northern-europe"
	  d="M 642.78125,148.21875 643.75,138.75 l 5.75,-2.5 -4.75,-7.25 2.75,-2.75 -1.75,-2.5 -0.75,-3 -4.75,-1.5 1,-4.25 -4.53125,-0.3125 0.0312,0.125 -7.78125,5.5 -4.25,-3.03125 -10.59375,4.78125 -6.53125,-3.34375 -6.5625,2.46875 -4.21875,-6.5625 0.6875,-2.8125 0.53125,-2.46875 -0.875,-2.84375 -4.25,1.96875 -1.59375,4.0625 2.65625,7.40625 -1.78125,2.46875 -10.0625,1.25 -3.875,4.40625 -6.6875,4.5625 3.4375,6.625 13.75,3.5 -0.9375,4.96875 L 590,149 l 4.75,-1.25 3,4.75 4.5,-3 2.5,-0.5 8,-6 7.25,-0.25 3.75,4.5 -4.25,5 4.75,3.5 10,0 5.75,-2.5 2,-5.5 0.78125,0.46875 z"/>
      
    <path id="ukraine"
	  d="m 717,175.6875 17.75,12.8125 7.5,-3.25 6.5,6.5 5.25,0.5 0.5,-13.5 -12.75,-15.75 1.5,-8.75 -11.5,-9.5 1.25,-5.75 4.5,-0.75 0.25,-4 8.5,-4.5 13,6.75 7.5,-2.5 9.25,3 6.5,-3.25 -12,-11 3,-3.5 -2,-3.25 -9.25,2.5 -0.75,-3 5.5,-0.5 -1,-2.75 -9,-2.5 3.25,-7.5 -3.5,-4 -0.25,-6 -2.25,-3 -4.25,-6 -0.75,-4 16.5,-11.5 -5.75,-3.5 -0.375,-5.46875 -2,-0.40625 -15.25,-4.25 -0.875,3.125 7.375,1 -0.25,2.625 -4.875,0 L 737,63 l -4.75,-0.25 -2,-2 -7.625,1 -12.125,6 -3.25,-2.25 0.125,-2.625 -6,-0.75 -0.25,1.625 2.25,3.125 0.375,1.625 -9.875,2.25 -2,1.625 1.5,2 -3.375,2.25 -7.25,-2 0.125,1.375 4.625,2.625 -4.625,1.875 -7.5,-3.5 L 671.5,70.875 666.75,69 667.125,66.875 677,67.75 681,70 689.125,69.625 693.625,68 692.25,65 672,58.5 667.15625,59.5 661.5,55.9375 657.78125,55.03125 653.25,58.25 l 0.25,4.25 5.25,3 -3,4 3.25,3 -0.5,4.75 6.25,7.75 -8.9375,8.28125 6.5625,2.09375 -5.28125,2.46875 -15.03125,0.53125 0.34375,1.59375 4.78125,5.125 -3,3.71875 -3.1875,-3 -4.59375,0 -0.53125,6 0.84375,2.875 4.53125,0.3125 -1,4.25 4.75,1.5 0.75,3 1.75,2.5 -2.75,2.75 4.75,7.25 -5.75,2.5 -0.96875,9.46875 1.71875,1.03125 5.25,-0.5 8.5,-1.75 6.25,8.25 0.25,3.5 3.71875,2.375 2.5625,-4.59375 7.625,-4.40625 3.34375,2.65625 2.3125,1.40625 -2.3125,2.46875 4.0625,4.0625 8.65625,-2.28125 -0.15625,-2.65625 -4.59375,-0.375 -0.71875,-3 13.625,-4.9375 -1.25,6.71875 -1.40625,4.9375 16.625,9.90625 L 717,175.6875 z"/>
             
    <path id="iceland"
	  d="m 521.125,74.374999 -5.75,4 -12.5,3.125 -6.25,-3.75 -2.75,1.625 0.875,-4.375 3.25,-1.375 6.375,-1.75 3,1 4.125,0 3.875,-2.5 3.875,1.5 z"/>

    <g id="great-britain">
      <path id="path3930"
	    d="m 554.5,107.25 -3.875,3.625 0.375,1.375 3.75,0.875 4.375,5.75 3.625,8.25 1.125,-1.125 3.125,-0.125 1,1.75 -5.625,3.25 2.125,2.625 -21.875,3 9,-4.125 -1.75,-1.5 -5.5,-1.125 2.875,-1.875 0,-2.5 5.125,-2.75 -1.625,-6.75 -5,-0.125 -1.125,-6.625 2.125,-4.25 3.875,-1.25 -1,1.75 1.75,1.5 z"/>
      <path id="path3932"
	    d="m 539,127.625 -6.25,1.625 -4.5,2.5 -1.875,-3.375 3,-5 -2.125,-2 0,-1.75 5.5,-0.75 1.875,-3.125 6.875,0.25 1.25,2.125 -3.125,3.875 z"/>
    </g>
  </g>

</svg>
